# xmcd
#
# Track frame offsets: 
#        150
#        14383
#        27752
#        41000
#        53716
#        67292
#        82370
#        95245
#        109814
#        123250
#        135996
#        149026
#        162017
#        174917
#        187317
#        200907
#
# Disc length: 2864 seconds
#
# Revision: 0
# Processed by: cddbd v1.5.1PL2 Copyright (c) Steve Scherf et al.
# Submitted via: ExactAudioCopy v0.95b3
#
DISCID=f30b2e10
DTITLE=Peter "Memphis Slim" Chatman - This Life I'm Living
DYEAR=2002
DGENRE=Blues
TTITLE0=Grinder Man Blues
TTITLE1=You Got To Help Me Some
TTITLE2=You Didn'y Mean Me No Good
TTITLE3=Maybe I'll Loan You A Dime
TTITLE4=Caught The Old Coon At Last
TTITLE5=Beer Drinking Woman
TTITLE6=This Life I'm Living
TTITLE7=Lend Me Your Love
TTITLE8=Two Of A Kind
TTITLE9=You Gonna Worry Too
TTITLE10=Jaspar's Gal
TTITLE11=Empty Room Blues
TTITLE12=Diggin' My Potatos No. 2
TTITLE13=Old Taylor
TTITLE14=I See My Great Mistake
TTITLE15=I Believe I'll Settle Down
EXTD=
EXTT0=
EXTT1=
EXTT2=
EXTT3=
EXTT4=
EXTT5=
EXTT6=
EXTT7=
EXTT8=
EXTT9=
EXTT10=
EXTT11=
EXTT12=
EXTT13=
EXTT14=
EXTT15=
PLAYORDER=
